<svg xmlns="http://www.w3.org/2000/svg" xmlns:xlink="http://www.w3.org/1999/xlink" width="50" zoomAndPan="magnify" viewBox="0 0 375 374.999991" height="50" preserveAspectRatio="xMidYMid meet" version="1.0"><defs><g/><clipPath id="41fde44220"><path d="M 80.597656 66 L 294.347656 66 L 294.347656 285.730469 L 80.597656 285.730469 Z M 80.597656 66 " clip-rule="nonzero"/></clipPath></defs><g clip-path="url(#41fde44220)"><path fill="#4db5ff" d="M 107.425781 229.007812 C 107.722656 229.492188 108.136719 230.160156 108.476562 230.714844 C 108.8125 231.265625 109.09375 231.683594 109.070312 231.695312 C 109.0625 231.699219 108.980469 231.597656 108.851562 231.433594 C 108.726562 231.265625 108.550781 231.035156 108.363281 230.765625 C 107.988281 230.230469 107.535156 229.582031 107.203125 229.113281 L 106.402344 227.519531 C 106.746094 228.019531 107.085938 228.515625 107.425781 229.007812 Z M 144.515625 86.535156 C 146.25 85.621094 148.019531 84.78125 149.800781 83.96875 C 150.699219 83.578125 151.59375 83.175781 152.5 82.804688 C 153.410156 82.441406 154.308594 82.058594 155.230469 81.722656 C 154.328125 82.148438 153.445312 82.617188 152.558594 83.066406 C 152.113281 83.289062 151.683594 83.535156 151.242188 83.769531 C 150.808594 84.007812 150.367188 84.238281 149.9375 84.484375 C 148.210938 85.46875 146.503906 86.472656 144.851562 87.550781 C 147.371094 86.214844 149.652344 85.132812 151.714844 84.261719 C 151.972656 84.148438 152.226562 84.039062 152.472656 83.933594 C 152.726562 83.832031 152.972656 83.730469 153.214844 83.632812 C 153.703125 83.4375 154.171875 83.246094 154.628906 83.0625 C 155.546875 82.714844 156.40625 82.398438 157.214844 82.109375 C 160.449219 80.964844 162.847656 80.335938 164.679688 79.890625 C 166.511719 79.449219 167.796875 79.238281 168.859375 79.0625 C 169.929688 78.917969 170.78125 78.808594 171.78125 78.699219 C 175.847656 78.238281 179.792969 78.050781 183.640625 78.085938 C 187.492188 78.132812 191.25 78.414062 194.953125 78.890625 C 195.933594 79.019531 196.324219 79.210938 195.515625 79.183594 C 194.886719 79.164062 194.277344 79.148438 193.6875 79.128906 C 193.09375 79.125 192.519531 79.121094 191.957031 79.117188 C 191.398438 79.109375 190.855469 79.121094 190.324219 79.132812 C 189.796875 79.144531 189.285156 79.15625 188.789062 79.164062 C 187.796875 79.214844 186.867188 79.246094 185.996094 79.304688 C 185.125 79.375 184.3125 79.421875 183.558594 79.496094 C 182.804688 79.570312 182.105469 79.644531 181.460938 79.710938 C 180.816406 79.796875 180.222656 79.871094 179.683594 79.945312 C 179.410156 79.984375 179.152344 80.015625 178.90625 80.050781 C 178.660156 80.09375 178.425781 80.128906 178.207031 80.167969 C 177.761719 80.242188 177.363281 80.308594 177.007812 80.367188 C 174.1875 80.910156 174.144531 81.042969 175.367188 80.945312 C 175.671875 80.925781 176.058594 80.890625 176.5 80.84375 C 176.945312 80.808594 177.445312 80.765625 177.972656 80.722656 C 179.035156 80.617188 180.238281 80.550781 181.382812 80.476562 C 181.957031 80.453125 182.515625 80.425781 183.039062 80.40625 C 183.5625 80.386719 184.050781 80.371094 184.476562 80.375 C 185.328125 80.371094 185.941406 80.382812 186.128906 80.417969 C 186.589844 80.503906 187.171875 80.605469 187.835938 80.691406 C 188.175781 80.734375 188.53125 80.78125 188.898438 80.824219 C 189.277344 80.875 189.667969 80.929688 190.074219 80.980469 C 190.484375 81.035156 190.90625 81.085938 191.339844 81.140625 C 191.773438 81.199219 192.222656 81.261719 192.675781 81.328125 C 193.585938 81.441406 194.527344 81.601562 195.476562 81.75 C 195.953125 81.820312 196.429688 81.910156 196.902344 81.996094 C 197.375 82.082031 197.847656 82.171875 198.320312 82.257812 C 199.253906 82.453125 200.171875 82.644531 201.042969 82.847656 C 201.914062 83.066406 202.742188 83.261719 203.496094 83.480469 C 204.25 83.703125 204.9375 83.910156 205.527344 84.117188 C 206.976562 84.644531 207.054688 84.949219 205.976562 85.066406 C 205.703125 85.097656 205.363281 85.105469 204.949219 85.125 C 204.535156 85.144531 204.050781 85.152344 203.5 85.152344 C 202.953125 85.144531 202.332031 85.152344 201.652344 85.152344 C 201.308594 85.152344 200.953125 85.148438 200.582031 85.144531 C 200.207031 85.148438 199.816406 85.152344 199.414062 85.15625 C 193.589844 84.164062 187.6875 83.707031 181.539062 83.863281 C 181.078125 83.878906 180.351562 83.929688 179.554688 83.984375 C 178.761719 84.0625 177.898438 84.148438 177.152344 84.21875 C 176.414062 84.441406 176.238281 84.5625 174.683594 84.917969 C 174.515625 84.960938 174.171875 85.035156 173.714844 85.125 C 173.253906 85.222656 172.683594 85.328125 172.070312 85.472656 C 171.457031 85.617188 170.789062 85.753906 170.144531 85.910156 C 169.503906 86.074219 168.875 86.230469 168.328125 86.371094 C 164.878906 86.9375 161.421875 87.71875 158.007812 88.695312 C 154.589844 89.667969 151.214844 90.84375 147.929688 92.21875 C 144.640625 93.585938 141.441406 95.132812 138.359375 96.824219 C 135.28125 98.523438 132.335938 100.378906 129.539062 102.332031 C 128.78125 102.867188 129.484375 102.136719 130.398438 101.257812 C 130.859375 100.824219 131.371094 100.351562 131.765625 99.972656 C 132.164062 99.597656 132.457031 99.320312 132.457031 99.257812 C 132.460938 98.972656 132.699219 98.507812 132.515625 98.367188 C 132.425781 98.292969 132.230469 98.304688 131.851562 98.457031 C 131.660156 98.53125 131.421875 98.644531 131.128906 98.800781 C 130.835938 98.960938 130.492188 99.171875 130.082031 99.433594 C 129.851562 99.578125 129.519531 99.804688 129.105469 100.097656 C 128.695312 100.402344 128.203125 100.777344 127.636719 101.210938 C 127.496094 101.320312 127.351562 101.433594 127.199219 101.550781 C 127.054688 101.667969 126.902344 101.792969 126.746094 101.921875 C 126.4375 102.175781 126.109375 102.445312 125.769531 102.722656 C 125.425781 103 125.078125 103.304688 124.71875 103.621094 C 124.359375 103.933594 123.988281 104.261719 123.605469 104.597656 C 122.097656 105.96875 120.449219 107.539062 118.8125 109.265625 C 117.179688 110.992188 115.542969 112.851562 114.015625 114.753906 C 113.390625 115.554688 112.808594 116.292969 112.289062 116.984375 C 111.78125 117.683594 111.304688 118.316406 110.890625 118.914062 C 110.480469 119.511719 110.105469 120.054688 109.765625 120.550781 C 109.441406 121.058594 109.144531 121.515625 108.878906 121.929688 C 108.746094 122.140625 108.621094 122.335938 108.503906 122.527344 C 108.390625 122.71875 108.28125 122.898438 108.179688 123.070312 C 107.980469 123.417969 107.800781 123.726562 107.636719 124.007812 C 107.3125 124.566406 107.082031 125.023438 106.890625 125.410156 C 106.507812 126.183594 106.277344 126.6875 105.96875 127.367188 C 105.660156 128.039062 105.238281 128.867188 104.511719 130.300781 C 104.371094 130.570312 104.230469 130.835938 104.105469 131.097656 C 103.976562 131.363281 103.851562 131.621094 103.730469 131.875 C 103.488281 132.382812 103.246094 132.863281 103.03125 133.335938 C 102.820312 133.808594 102.617188 134.257812 102.421875 134.691406 C 102.324219 134.90625 102.230469 135.117188 102.136719 135.324219 C 102.050781 135.535156 101.964844 135.738281 101.878906 135.9375 C 101.203125 137.527344 100.714844 138.835938 100.324219 139.890625 C 99.957031 140.953125 99.671875 141.753906 99.503906 142.359375 C 99.328125 142.960938 99.226562 143.355469 99.179688 143.589844 C 99.003906 144.53125 99.730469 142.9375 100.238281 142.011719 C 101.175781 140.375 101.441406 140.476562 102.484375 138.703125 C 102.738281 138.257812 103.0625 137.703125 103.457031 136.976562 C 103.855469 136.238281 104.335938 135.351562 104.929688 134.257812 C 106.148438 132.0625 107.824219 128.988281 110.5625 124.859375 L 110.460938 125.042969 C 112.828125 121.40625 114.902344 118.800781 116.398438 117.050781 C 117.15625 116.179688 117.761719 115.515625 118.214844 115.050781 C 118.671875 114.59375 118.96875 114.332031 119.101562 114.265625 C 119.234375 114.195312 119.203125 114.320312 119.011719 114.636719 C 118.820312 114.957031 118.457031 115.457031 117.960938 116.175781 C 117.707031 116.535156 117.414062 116.9375 117.089844 117.394531 C 116.769531 117.855469 116.410156 118.367188 116.019531 118.929688 C 115.625 119.492188 115.214844 120.121094 114.753906 120.789062 C 114.300781 121.460938 113.835938 122.199219 113.320312 122.984375 C 110.671875 127.171875 108.453125 131.363281 106.601562 135.636719 C 105.664062 137.769531 104.832031 139.929688 104.070312 142.113281 C 103.886719 142.660156 103.683594 143.203125 103.511719 143.757812 C 103.335938 144.308594 103.160156 144.859375 102.984375 145.414062 C 102.816406 145.96875 102.660156 146.527344 102.496094 147.085938 C 102.328125 147.640625 102.179688 148.207031 102.03125 148.769531 C 102.183594 148.433594 102.316406 148.148438 102.445312 147.882812 C 102.582031 147.617188 102.710938 147.367188 102.847656 147.101562 C 103.128906 146.5625 103.410156 145.929688 103.871094 144.925781 C 104.101562 144.425781 104.34375 143.820312 104.675781 143.097656 C 104.835938 142.734375 105.007812 142.339844 105.199219 141.90625 C 105.382812 141.472656 105.609375 141.011719 105.835938 140.503906 C 106.765625 138.476562 108.023438 135.800781 109.96875 132.320312 C 111.417969 129.75 112.671875 127.832031 113.734375 126.335938 C 114.261719 125.585938 114.757812 124.949219 115.191406 124.378906 C 115.636719 123.820312 116.042969 123.335938 116.410156 122.902344 C 116.773438 122.464844 117.128906 122.101562 117.449219 121.753906 C 117.773438 121.410156 118.070312 121.089844 118.375 120.792969 C 118.679688 120.492188 118.976562 120.199219 119.28125 119.894531 C 119.433594 119.742188 119.589844 119.585938 119.746094 119.425781 C 119.910156 119.265625 120.078125 119.101562 120.253906 118.929688 C 120.429688 118.753906 120.320312 118.941406 120.023438 119.359375 C 119.726562 119.777344 119.269531 120.445312 118.726562 121.203125 C 117.667969 122.746094 116.347656 124.714844 115.59375 126.027344 C 114.167969 128.121094 112.589844 130.703125 111.277344 133.101562 C 110.613281 134.296875 110.03125 135.449219 109.515625 136.453125 C 109.023438 137.464844 108.585938 138.316406 108.296875 138.9375 C 107.390625 140.746094 106.585938 142.601562 105.820312 144.417969 C 105.457031 145.332031 105.078125 146.230469 104.753906 147.128906 C 104.585938 147.574219 104.421875 148.015625 104.257812 148.453125 C 104.105469 148.894531 103.953125 149.328125 103.804688 149.757812 C 102.609375 153.199219 101.742188 156.320312 101.132812 158.675781 C 100.929688 159.398438 100.816406 159.832031 100.714844 160.035156 C 100.621094 160.242188 100.558594 160.222656 100.523438 160.058594 C 100.488281 159.890625 100.472656 159.582031 100.472656 159.199219 C 100.476562 158.816406 100.503906 158.367188 100.527344 157.925781 C 100.550781 157.476562 100.59375 156.867188 100.691406 156.167969 C 100.789062 155.464844 100.882812 154.65625 101.039062 153.816406 C 101.109375 153.394531 101.183594 152.964844 101.261719 152.527344 C 101.332031 152.089844 101.429688 151.652344 101.515625 151.21875 C 101.601562 150.78125 101.6875 150.347656 101.773438 149.925781 C 101.867188 149.503906 101.957031 149.09375 102.042969 148.699219 C 100.21875 155.125 99.085938 161.957031 98.738281 168.730469 C 98.371094 175.511719 98.734375 182.21875 99.605469 188.441406 C 100.097656 191.984375 100.78125 195.613281 101.691406 199.164062 C 102.589844 202.714844 103.683594 206.199219 104.90625 209.476562 C 106.140625 212.75 107.492188 215.820312 108.855469 218.574219 C 110.21875 221.328125 111.589844 223.769531 112.8125 225.820312 C 114.878906 229.222656 115.816406 230.683594 116.40625 231.777344 C 116.710938 232.316406 116.9375 232.761719 117.222656 233.28125 C 117.515625 233.796875 117.878906 234.382812 118.445312 235.21875 C 119.542969 236.808594 121.652344 239.398438 121.742188 239.675781 C 121.785156 239.816406 121.28125 239.417969 119.925781 237.980469 C 119.757812 237.800781 119.570312 237.609375 119.375 237.398438 C 119.183594 237.179688 118.972656 236.949219 118.75 236.699219 C 118.527344 236.449219 118.289062 236.183594 118.039062 235.898438 C 117.785156 235.609375 117.527344 235.296875 117.25 234.96875 C 116.132812 233.65625 114.816406 231.980469 113.285156 229.875 C 112.835938 229.242188 112.453125 228.742188 112.160156 228.335938 C 111.867188 227.929688 111.636719 227.636719 111.460938 227.4375 C 111.113281 227.035156 110.988281 227.007812 111.015625 227.21875 C 111.066406 227.644531 111.710938 229.054688 112.410156 230.324219 C 113.097656 231.621094 114.703125 234.019531 114.222656 233.527344 C 114.101562 233.40625 113.84375 233.109375 113.425781 232.550781 C 113.21875 232.273438 112.964844 231.933594 112.664062 231.527344 C 112.359375 231.121094 112.027344 230.628906 111.632812 230.066406 C 110.089844 227.796875 107.71875 224.226562 104.898438 218.480469 C 104.71875 218.109375 104.542969 217.746094 104.375 217.394531 C 104.203125 217.042969 104.050781 216.695312 103.894531 216.359375 C 103.585938 215.683594 103.289062 215.050781 103.035156 214.441406 C 102.773438 213.832031 102.519531 213.265625 102.296875 212.722656 C 102.074219 212.179688 101.867188 211.671875 101.675781 211.195312 C 101.285156 210.246094 100.980469 209.40625 100.691406 208.691406 C 100.421875 207.96875 100.195312 207.359375 100 206.84375 C 99.800781 206.328125 99.652344 205.90625 99.523438 205.566406 C 99.390625 205.226562 99.285156 204.96875 99.199219 204.773438 C 99.027344 204.386719 98.933594 204.253906 98.878906 204.242188 C 97.734375 203.984375 96.785156 204.378906 95.949219 205.136719 C 95.945312 205.136719 95.953125 205.175781 95.972656 205.238281 C 95.992188 205.304688 96.023438 205.402344 96.058594 205.523438 C 96.136719 205.769531 96.242188 206.113281 96.371094 206.53125 C 96.621094 207.367188 97.011719 208.457031 97.386719 209.554688 C 97.578125 210.101562 97.789062 210.644531 97.972656 211.152344 C 98.164062 211.664062 98.339844 212.136719 98.503906 212.539062 C 98.660156 212.945312 98.792969 213.277344 98.886719 213.515625 C 98.933594 213.632812 98.96875 213.726562 98.992188 213.789062 C 99.015625 213.851562 99.027344 213.882812 99.023438 213.886719 C 98.9375 213.894531 98.6875 213.496094 98.378906 212.964844 C 98.226562 212.699219 98.058594 212.398438 97.894531 212.101562 C 97.738281 211.804688 97.578125 211.507812 97.433594 211.242188 C 95.75 206.871094 94.277344 201.820312 93.4375 197.929688 C 91.988281 191.195312 91.367188 185.097656 91.253906 178.691406 C 91.128906 177.964844 91.046875 177.238281 90.945312 176.511719 C 90.898438 176.144531 90.847656 175.78125 90.800781 175.414062 C 90.761719 175.042969 90.722656 174.675781 90.683594 174.304688 C 90.644531 173.941406 90.609375 173.570312 90.5625 173.105469 C 90.515625 172.636719 90.484375 172.078125 90.429688 171.351562 C 90.65625 168.167969 91.019531 165.121094 91.511719 162.132812 C 92 159.136719 92.621094 156.199219 93.394531 153.234375 C 94.167969 150.269531 95.089844 147.273438 96.21875 144.1875 C 97.34375 141.101562 98.675781 137.917969 100.296875 134.597656 C 99.792969 134.371094 99.410156 134.199219 99.03125 134.03125 C 100.171875 131.476562 101.417969 128.964844 102.761719 126.511719 C 104.121094 124.359375 105.433594 122.523438 106.886719 120.574219 C 108.335938 118.628906 109.949219 116.585938 112.042969 114.125 C 114.511719 111.203125 117.378906 108.191406 120.628906 105.148438 C 122.269531 103.640625 123.988281 102.109375 125.835938 100.617188 C 127.683594 99.125 129.621094 97.632812 131.679688 96.1875 C 133.324219 95.035156 135.917969 93.226562 138.894531 91.425781 C 141.859375 89.617188 145.199219 87.820312 148.15625 86.445312 C 147.109375 86.777344 146.046875 87.09375 145.003906 87.460938 Z M 183.453125 274.191406 C 187.222656 274.65625 191.546875 274.863281 194.746094 274.910156 C 195.339844 274.917969 195.898438 274.925781 196.425781 274.9375 C 196.945312 274.9375 197.433594 274.9375 197.886719 274.9375 C 198.773438 274.941406 199.527344 274.945312 200.152344 274.953125 C 200.761719 274.960938 201.222656 274.984375 201.535156 275.015625 C 201.847656 275.042969 202.011719 275.085938 202.023438 275.148438 C 202.035156 275.207031 201.898438 275.285156 201.605469 275.382812 C 201.3125 275.472656 200.867188 275.574219 200.269531 275.691406 C 199.667969 275.804688 198.910156 275.941406 197.992188 276.050781 C 197.53125 276.113281 197.035156 276.171875 196.5 276.238281 C 195.960938 276.289062 195.382812 276.34375 194.765625 276.398438 C 190.96875 276.71875 187.121094 276.835938 183.238281 276.71875 C 179.355469 276.601562 175.4375 276.261719 171.511719 275.6875 C 170.527344 275.558594 169.546875 275.375 168.5625 275.214844 C 167.578125 275.046875 166.601562 274.839844 165.613281 274.652344 C 164.636719 274.433594 163.648438 274.230469 162.667969 273.988281 C 161.6875 273.742188 160.699219 273.511719 159.722656 273.234375 C 155.804688 272.167969 151.890625 270.871094 148.039062 269.289062 C 147.082031 268.898438 145 267.980469 142.632812 266.742188 C 140.253906 265.515625 137.585938 263.976562 135.34375 262.558594 C 135.003906 262.339844 134.441406 261.964844 133.792969 261.519531 C 133.464844 261.300781 133.125 261.054688 132.777344 260.804688 C 132.433594 260.550781 132.082031 260.296875 131.742188 260.050781 C 131.0625 259.558594 130.449219 259.0625 130.003906 258.714844 C 129.5625 258.367188 129.300781 258.148438 129.34375 258.15625 C 131.558594 258.726562 134.210938 259.585938 137.582031 260.703125 C 137.617188 260.714844 138.152344 261.039062 139.003906 261.558594 C 139.867188 262.058594 141.042969 262.765625 142.390625 263.492188 C 143.054688 263.871094 143.769531 264.242188 144.492188 264.617188 C 144.855469 264.804688 145.214844 265.003906 145.585938 265.179688 C 145.953125 265.363281 146.324219 265.542969 146.6875 265.722656 C 147.414062 266.089844 148.140625 266.421875 148.828125 266.738281 C 149.175781 266.894531 149.507812 267.050781 149.832031 267.199219 C 150.15625 267.339844 150.46875 267.472656 150.765625 267.601562 C 149.792969 266.949219 148.847656 266.242188 147.902344 265.5625 C 147.441406 265.207031 146.976562 264.855469 146.511719 264.503906 C 146.28125 264.324219 146.050781 264.152344 145.824219 263.972656 L 145.148438 263.429688 C 144.359375 262.832031 141.003906 260.683594 143.386719 261.835938 C 144.09375 262.183594 144.726562 262.457031 145.269531 262.691406 C 145.816406 262.917969 146.273438 263.121094 146.664062 263.253906 C 147.441406 263.535156 147.914062 263.664062 148.128906 263.667969 C 148.566406 263.671875 148 263.183594 146.886719 262.421875 C 146.332031 262.03125 145.648438 261.558594 144.886719 261.050781 C 144.507812 260.789062 144.109375 260.515625 143.703125 260.230469 C 143.296875 259.949219 142.871094 259.664062 142.449219 259.355469 C 142.027344 259.050781 141.601562 258.742188 141.175781 258.433594 C 140.75 258.128906 140.332031 257.800781 139.917969 257.488281 C 139.089844 256.871094 138.3125 256.226562 137.609375 255.648438 C 139.648438 257.09375 141.609375 258.328125 143.4375 259.449219 C 144.363281 259.996094 145.242188 260.527344 146.109375 261.003906 C 146.542969 261.246094 146.957031 261.492188 147.378906 261.714844 C 147.796875 261.9375 148.203125 262.160156 148.605469 262.375 C 151.816406 264.078125 154.546875 265.332031 156.820312 266.316406 C 157.953125 266.828125 158.984375 267.230469 159.894531 267.621094 C 160.804688 267.988281 161.613281 268.316406 162.332031 268.609375 C 163.046875 268.886719 163.660156 269.132812 164.1875 269.355469 C 164.714844 269.578125 165.164062 269.753906 165.53125 269.921875 C 167 270.59375 167.277344 270.910156 167.179688 271.15625 C 167.082031 271.402344 166.617188 271.558594 166.652344 271.832031 C 172.183594 273.097656 177.8125 273.878906 183.453125 274.191406 Z M 131.527344 253.386719 C 132.355469 254.136719 133.101562 254.757812 133.734375 255.296875 C 134.046875 255.566406 134.332031 255.808594 134.597656 256.023438 C 134.855469 256.238281 135.085938 256.429688 135.289062 256.597656 C 136.085938 257.277344 136.386719 257.5625 136.097656 257.46875 C 135.949219 257.421875 135.664062 257.265625 135.222656 257.011719 C 134.996094 256.878906 134.738281 256.722656 134.4375 256.546875 C 134.140625 256.367188 133.796875 256.160156 133.425781 255.914062 C 132.675781 255.425781 131.761719 254.835938 130.703125 254.085938 C 130.4375 253.902344 130.160156 253.707031 129.875 253.507812 C 129.59375 253.300781 129.300781 253.085938 128.996094 252.863281 C 128.691406 252.640625 128.378906 252.410156 128.054688 252.171875 C 127.734375 251.929688 127.40625 251.675781 127.0625 251.414062 C 125.925781 250.726562 124.8125 250 123.695312 249.265625 C 121.765625 247.5 119.917969 245.644531 118.132812 243.734375 C 121.199219 246.757812 124.480469 249.539062 127.886719 252.132812 C 129 252.503906 130.152344 252.945312 131.527344 253.386719 Z M 106.59375 203.480469 C 106.433594 202.988281 106.269531 202.480469 106.101562 201.96875 C 105.949219 201.453125 105.792969 200.929688 105.636719 200.402344 C 105.476562 199.875 105.335938 199.332031 105.191406 198.792969 C 105.050781 198.253906 104.894531 197.714844 104.769531 197.164062 C 104.214844 194.992188 103.792969 192.792969 103.425781 190.785156 C 103.339844 190.28125 103.257812 189.789062 103.175781 189.3125 C 103.089844 188.835938 103.035156 188.367188 102.964844 187.921875 C 102.898438 187.476562 102.828125 187.046875 102.769531 186.636719 C 102.714844 186.226562 102.664062 185.839844 102.613281 185.472656 C 102.5625 185.109375 102.511719 184.765625 102.46875 184.449219 C 102.429688 184.132812 102.386719 183.839844 102.351562 183.578125 C 102.273438 183.054688 102.199219 182.648438 102.132812 182.382812 C 101.996094 181.785156 101.769531 180.148438 101.617188 178.292969 C 101.570312 177.832031 101.542969 177.355469 101.515625 176.878906 C 101.484375 176.402344 101.453125 175.925781 101.421875 175.464844 C 101.378906 174.542969 101.339844 173.671875 101.308594 172.957031 C 101.265625 171.535156 101.191406 170.75 101.058594 171.457031 C 101.027344 171.636719 100.988281 171.90625 100.949219 172.285156 C 100.90625 172.660156 100.855469 173.144531 100.828125 173.75 C 100.757812 174.960938 100.679688 176.660156 100.714844 178.941406 C 100.71875 179.417969 100.691406 179.34375 100.644531 178.925781 C 100.59375 178.507812 100.515625 177.742188 100.46875 176.824219 C 100.441406 176.367188 100.410156 175.871094 100.382812 175.363281 C 100.363281 174.855469 100.347656 174.335938 100.332031 173.832031 C 100.320312 173.578125 100.3125 173.328125 100.304688 173.085938 C 100.304688 172.84375 100.300781 172.605469 100.296875 172.378906 C 100.292969 171.925781 100.285156 171.507812 100.28125 171.15625 C 100.4375 169.246094 100.660156 166.785156 100.984375 164.671875 C 101.023438 164.40625 101.0625 164.148438 101.097656 163.894531 C 101.140625 163.644531 101.179688 163.398438 101.21875 163.164062 C 101.300781 162.691406 101.378906 162.253906 101.445312 161.863281 C 101.59375 161.082031 101.730469 160.5 101.808594 160.214844 C 102.335938 158.394531 102.84375 156.671875 103.855469 153.339844 C 104.378906 151.679688 105.011719 149.613281 105.980469 146.980469 C 106.214844 146.320312 106.492188 145.628906 106.765625 144.894531 C 107.046875 144.160156 107.371094 143.398438 107.695312 142.582031 C 108.386719 140.972656 109.152344 139.1875 110.113281 137.257812 C 110.238281 137 110.355469 136.757812 110.472656 136.527344 C 110.59375 136.300781 110.707031 136.089844 110.816406 135.882812 C 111.03125 135.476562 111.230469 135.117188 111.410156 134.796875 C 111.78125 134.164062 112.082031 133.695312 112.328125 133.335938 C 112.570312 132.972656 112.769531 132.722656 112.9375 132.535156 C 113.101562 132.34375 113.234375 132.210938 113.351562 132.089844 C 113.632812 131.804688 113.914062 131.472656 114.242188 131.078125 C 114.574219 130.679688 114.933594 130.210938 115.339844 129.636719 C 115.761719 129.070312 116.234375 128.398438 116.789062 127.597656 C 117.070312 127.203125 117.375 126.773438 117.699219 126.308594 C 118.019531 125.839844 118.386719 125.351562 118.765625 124.816406 C 120.308594 122.6875 122.328125 119.957031 125.265625 116.613281 C 128.203125 113.277344 132.054688 109.296875 137.453125 105.035156 C 137.875 104.699219 138.289062 104.367188 138.710938 104.058594 C 139.128906 103.742188 139.539062 103.429688 139.949219 103.121094 C 140.785156 102.523438 141.597656 101.917969 142.449219 101.347656 C 143.285156 100.761719 144.15625 100.207031 145.050781 99.628906 C 145.5 99.34375 145.96875 99.066406 146.4375 98.777344 C 146.90625 98.484375 147.398438 98.207031 147.898438 97.921875 C 148.148438 97.78125 148.453125 97.609375 148.789062 97.417969 C 149.132812 97.230469 149.515625 97.035156 149.914062 96.824219 C 150.710938 96.394531 151.609375 95.96875 152.445312 95.558594 C 153.289062 95.160156 154.082031 94.8125 154.671875 94.542969 C 155.273438 94.292969 155.671875 94.128906 155.734375 94.113281 C 156.058594 94.03125 156.476562 93.894531 156.960938 93.753906 C 157.449219 93.609375 157.984375 93.453125 158.539062 93.289062 C 159.089844 93.125 159.667969 92.976562 160.207031 92.828125 C 160.476562 92.757812 160.742188 92.683594 160.992188 92.621094 C 161.246094 92.5625 161.484375 92.507812 161.710938 92.457031 C 162.597656 92.261719 163.199219 92.15625 163.171875 92.269531 C 163.144531 92.375 162.484375 92.6875 160.867188 93.332031 C 160.3125 93.566406 159.796875 93.785156 159.320312 93.988281 C 158.839844 94.195312 158.40625 94.402344 158.003906 94.585938 C 157.195312 94.949219 156.542969 95.292969 156.007812 95.570312 C 155.738281 95.707031 155.503906 95.832031 155.292969 95.945312 C 155.089844 96.0625 154.914062 96.164062 154.761719 96.257812 C 154.464844 96.441406 154.269531 96.570312 154.167969 96.660156 C 153.96875 96.835938 154.136719 96.835938 154.566406 96.714844 C 154.777344 96.65625 155.054688 96.566406 155.378906 96.449219 C 155.714844 96.335938 156.09375 96.207031 156.507812 96.066406 C 156.925781 95.925781 157.371094 95.753906 157.855469 95.601562 C 158.332031 95.441406 158.832031 95.273438 159.34375 95.101562 C 159.851562 94.933594 160.378906 94.78125 160.890625 94.617188 C 161.148438 94.539062 161.40625 94.457031 161.660156 94.382812 C 161.914062 94.3125 162.164062 94.242188 162.410156 94.171875 C 162.902344 94.039062 163.371094 93.898438 163.808594 93.792969 C 164.25 93.6875 164.652344 93.59375 165.003906 93.515625 C 165.707031 93.351562 166.21875 93.285156 166.410156 93.300781 C 166.925781 93.132812 167.40625 92.976562 167.855469 92.832031 C 168.304688 92.695312 168.722656 92.570312 169.113281 92.453125 C 169.890625 92.203125 170.5625 92.03125 171.148438 91.851562 C 171.738281 91.675781 172.246094 91.539062 172.710938 91.414062 C 173.175781 91.28125 173.59375 91.164062 174 91.050781 C 174.96875 90.800781 175.890625 90.539062 176.816406 90.328125 C 177.277344 90.222656 177.734375 90.105469 178.195312 90.003906 C 178.660156 89.902344 179.121094 89.804688 179.589844 89.707031 C 182.703125 89.386719 185.640625 89.238281 189.023438 89.230469 C 191.464844 89.234375 194.503906 89.328125 197.257812 89.578125 C 197.460938 89.5625 197.660156 89.546875 197.863281 89.527344 C 198.0625 89.519531 198.261719 89.507812 198.464844 89.496094 C 198.871094 89.476562 199.289062 89.453125 199.738281 89.433594 C 200.066406 89.414062 200.445312 89.417969 200.917969 89.421875 C 201.390625 89.429688 201.964844 89.421875 202.671875 89.441406 C 204.855469 89.804688 206.972656 90.257812 209.007812 90.742188 C 211.042969 91.238281 212.984375 91.800781 214.824219 92.375 C 218.5 93.5625 221.742188 94.882812 224.429688 96.148438 C 225.183594 96.503906 225.925781 96.878906 226.675781 97.234375 L 227.789062 97.800781 C 228.160156 97.988281 228.535156 98.175781 228.90625 98.375 C 229.644531 98.769531 230.398438 99.152344 231.144531 99.570312 C 231.515625 99.777344 231.898438 99.976562 232.277344 100.1875 C 232.652344 100.402344 233.035156 100.617188 233.417969 100.835938 C 233.609375 100.945312 233.800781 101.054688 233.996094 101.164062 C 234.1875 101.277344 234.378906 101.390625 234.574219 101.503906 C 234.960938 101.734375 235.351562 101.960938 235.75 102.195312 C 236.140625 102.433594 236.539062 102.675781 236.9375 102.921875 C 237.140625 103.046875 237.34375 103.167969 237.546875 103.292969 C 237.746094 103.421875 237.949219 103.550781 238.152344 103.679688 C 239.792969 104.699219 241.480469 105.839844 243.265625 107.097656 C 247.617188 110.1875 251.671875 113.464844 254.917969 117.015625 C 260.707031 123.320312 265.203125 130.351562 268.691406 137.785156 C 270.042969 140.667969 271.085938 143.304688 272.078125 146.195312 C 274.019531 151.878906 275.246094 157.328125 275.941406 161.585938 C 275.988281 161.851562 276.035156 162.113281 276.078125 162.367188 C 276.117188 162.625 276.15625 162.878906 276.195312 163.125 C 276.269531 163.617188 276.34375 164.089844 276.414062 164.539062 C 276.53125 165.441406 276.660156 166.246094 276.753906 166.957031 C 276.84375 167.664062 276.929688 168.265625 277.015625 168.753906 C 277.089844 169.238281 277.15625 169.609375 277.222656 169.847656 C 277.324219 170.210938 277.429688 170.605469 277.535156 171.007812 C 277.628906 171.414062 277.726562 171.832031 277.820312 172.238281 C 277.914062 172.648438 278.019531 173.046875 278.101562 173.417969 C 278.183594 173.792969 278.269531 174.132812 278.355469 174.429688 C 278.691406 175.601562 279.011719 176 279.300781 174.273438 C 279.773438 171.429688 280.113281 168.28125 280.191406 164.65625 C 280.199219 164.429688 280.203125 164.199219 280.207031 163.96875 C 280.207031 163.738281 280.207031 163.507812 280.207031 163.273438 C 280.203125 162.804688 280.199219 162.328125 280.199219 161.847656 C 280.1875 161.363281 280.164062 160.871094 280.148438 160.371094 C 280.128906 159.871094 280.113281 159.363281 280.070312 158.847656 C 280.035156 158.328125 279.996094 157.804688 279.960938 157.273438 C 279.910156 156.738281 279.855469 156.195312 279.800781 155.648438 C 279.75 155.09375 279.679688 154.535156 279.601562 153.964844 C 279.523438 153.398438 279.460938 152.816406 279.359375 152.230469 C 279.011719 149.878906 278.5 147.386719 277.824219 144.734375 C 277.144531 142.085938 276.28125 139.28125 275.175781 136.335938 C 274.066406 133.390625 272.71875 130.296875 271.054688 127.089844 C 269.378906 123.890625 267.40625 120.566406 265.03125 117.183594 C 263.734375 115.324219 262.410156 113.597656 261.117188 111.960938 C 260.453125 111.160156 259.824219 110.355469 259.164062 109.605469 C 258.839844 109.226562 258.519531 108.851562 258.203125 108.480469 C 257.878906 108.113281 257.554688 107.753906 257.238281 107.398438 C 254.695312 104.550781 252.21875 102.105469 249.898438 99.960938 C 247.574219 97.816406 245.402344 95.972656 243.398438 94.363281 C 241.394531 92.757812 239.574219 91.371094 237.929688 90.15625 C 237.117188 89.558594 236.339844 88.992188 235.601562 88.453125 C 234.863281 87.9375 234.183594 87.433594 233.539062 86.972656 C 232.890625 86.515625 232.292969 86.082031 231.734375 85.671875 C 231.171875 85.273438 230.652344 84.894531 230.175781 84.53125 C 229.699219 84.164062 229.25 83.847656 228.847656 83.523438 C 228.4375 83.207031 228.070312 82.898438 227.730469 82.617188 C 227.050781 82.054688 226.5 81.542969 226.050781 81.074219 C 225.71875 80.726562 225.617188 80.480469 225.71875 80.296875 C 225.824219 80.117188 226.136719 80 226.625 79.96875 C 227.113281 79.9375 227.78125 79.972656 228.601562 80.066406 C 229.417969 80.164062 230.378906 80.34375 231.46875 80.570312 C 233.632812 81.058594 236.273438 81.808594 239.125 82.820312 C 241.972656 83.832031 245.027344 85.105469 248.035156 86.550781 C 248.726562 86.886719 249.464844 87.261719 250.113281 87.566406 C 250.761719 87.875 251.304688 88.144531 251.621094 88.238281 C 251.933594 88.335938 252.015625 88.273438 251.714844 87.957031 C 251.566406 87.796875 251.324219 87.574219 250.96875 87.273438 C 250.609375 86.976562 250.132812 86.617188 249.523438 86.164062 C 247.636719 84.800781 246.257812 83.800781 245.269531 83.089844 C 244.804688 82.738281 244.453125 82.464844 244.203125 82.257812 C 243.953125 82.046875 243.816406 81.898438 243.769531 81.800781 C 243.585938 81.417969 244.929688 81.867188 246.953125 82.78125 C 247.207031 82.886719 247.675781 83.132812 248.238281 83.4375 C 248.800781 83.746094 249.46875 84.097656 250.089844 84.457031 C 250.710938 84.8125 251.304688 85.148438 251.742188 85.386719 C 252.179688 85.625 252.457031 85.78125 252.46875 85.742188 C 252.476562 85.707031 252.214844 85.476562 251.539062 85.011719 C 251.199219 84.777344 250.761719 84.476562 250.207031 84.105469 C 249.652344 83.730469 248.96875 83.308594 248.152344 82.792969 C 247.746094 82.535156 247.296875 82.273438 246.8125 81.984375 C 246.332031 81.703125 245.8125 81.390625 245.25 81.070312 C 244.683594 80.757812 244.082031 80.421875 243.4375 80.066406 C 242.792969 79.710938 242.09375 79.359375 241.355469 78.972656 C 238.398438 77.460938 234.683594 75.710938 229.980469 73.972656 C 229.445312 73.777344 228.578125 73.433594 227.53125 73.0625 C 227.003906 72.871094 226.441406 72.652344 225.847656 72.449219 C 225.253906 72.246094 224.636719 72.035156 224.015625 71.820312 C 221.523438 70.988281 218.964844 70.226562 217.691406 69.871094 C 215.335938 69.171875 211.617188 68.265625 207.390625 67.582031 C 203.164062 66.886719 198.4375 66.410156 194.136719 66.230469 C 189.832031 66.054688 185.957031 66.136719 183.417969 66.234375 C 182.785156 66.242188 182.230469 66.273438 181.777344 66.289062 C 181.324219 66.300781 180.964844 66.304688 180.71875 66.296875 C 180.230469 66.277344 180.183594 66.214844 180.695312 66.09375 C 180.75 66.082031 180.566406 66.089844 180.203125 66.109375 C 179.835938 66.132812 179.289062 66.1875 178.613281 66.246094 C 177.9375 66.3125 177.128906 66.386719 176.246094 66.503906 C 175.363281 66.613281 174.402344 66.726562 173.421875 66.886719 C 172.929688 66.960938 172.429688 67.035156 171.933594 67.109375 C 171.433594 67.191406 170.941406 67.285156 170.449219 67.375 C 169.960938 67.460938 169.480469 67.550781 169.007812 67.632812 C 168.542969 67.734375 168.085938 67.828125 167.652344 67.917969 C 167.21875 68.007812 166.800781 68.09375 166.414062 68.175781 C 166.027344 68.269531 165.664062 68.355469 165.332031 68.433594 C 164.675781 68.589844 164.144531 68.71875 163.796875 68.8125 C 159.242188 70.042969 155.488281 71.335938 152.316406 72.539062 C 149.144531 73.75 146.542969 74.859375 144.328125 75.878906 C 144.050781 76.007812 143.777344 76.128906 143.507812 76.25 C 143.246094 76.375 142.984375 76.5 142.730469 76.621094 C 142.21875 76.859375 141.730469 77.09375 141.253906 77.316406 C 140.316406 77.777344 139.441406 78.210938 138.613281 78.617188 C 137.792969 79.035156 137.015625 79.433594 136.265625 79.816406 C 135.523438 80.210938 134.808594 80.589844 134.09375 80.96875 C 133.828125 81.109375 133.117188 81.539062 132.15625 82.125 C 131.671875 82.410156 131.144531 82.757812 130.570312 83.128906 C 130 83.5 129.386719 83.886719 128.777344 84.3125 C 128.164062 84.734375 127.53125 85.152344 126.925781 85.589844 C 126.320312 86.03125 125.730469 86.460938 125.167969 86.867188 C 124.613281 87.28125 124.101562 87.683594 123.640625 88.035156 C 123.410156 88.214844 123.195312 88.378906 122.996094 88.535156 C 122.800781 88.691406 122.621094 88.839844 122.460938 88.96875 C 118.820312 91.945312 115.574219 94.910156 112.019531 98.679688 C 110.246094 100.570312 108.382812 102.648438 106.425781 105.089844 C 104.464844 107.527344 102.386719 110.304688 100.210938 113.59375 C 100.582031 112.976562 100.933594 112.398438 101.265625 111.851562 C 101.605469 111.304688 101.933594 110.800781 102.238281 110.320312 C 102.84375 109.355469 103.421875 108.53125 103.925781 107.773438 C 104.179688 107.390625 104.429688 107.039062 104.667969 106.703125 C 104.910156 106.363281 105.136719 106.042969 105.355469 105.734375 C 105.792969 105.109375 106.21875 104.546875 106.628906 103.996094 C 100.601562 111.058594 95.507812 118.972656 91.496094 127.347656 C 89.503906 131.542969 87.773438 135.847656 86.324219 140.21875 C 84.894531 144.597656 83.71875 149.035156 82.839844 153.488281 C 81.96875 157.945312 81.363281 162.417969 81.015625 166.855469 C 80.675781 171.292969 80.601562 175.695312 80.75 180.03125 C 81.035156 188.714844 82.3125 197.136719 84.273438 205.058594 C 84.3125 205.21875 84.378906 205.480469 84.472656 205.828125 C 84.574219 206.171875 84.699219 206.597656 84.84375 207.089844 C 84.992188 207.578125 85.148438 208.132812 85.339844 208.71875 C 85.535156 209.308594 85.742188 209.941406 85.957031 210.59375 C 86.839844 213.195312 87.964844 216.105469 88.8125 218.054688 C 89.832031 220.414062 90.914062 222.765625 92.105469 225.054688 L 92.542969 225.914062 L 93.003906 226.765625 C 93.3125 227.328125 93.609375 227.898438 93.925781 228.457031 C 94.558594 229.566406 95.1875 230.675781 95.851562 231.753906 C 98.464844 236.09375 101.34375 240.089844 104.1875 243.628906 C 106.773438 246.820312 109.402344 249.703125 111.921875 252.253906 C 114.445312 254.804688 116.859375 257.015625 119.019531 258.898438 C 123.355469 262.640625 126.636719 265.074219 127.796875 266.214844 C 128.230469 266.628906 129.035156 267.300781 130.214844 268.128906 C 130.800781 268.550781 131.472656 269.019531 132.246094 269.515625 C 132.628906 269.761719 133.03125 270.023438 133.453125 270.292969 C 133.878906 270.5625 134.332031 270.828125 134.800781 271.109375 C 136.671875 272.242188 138.890625 273.457031 141.421875 274.707031 C 143.949219 275.953125 146.796875 277.214844 149.925781 278.398438 C 150.480469 278.621094 151.046875 278.820312 151.613281 279.023438 C 152.175781 279.222656 152.738281 279.433594 153.308594 279.625 C 154.453125 280.003906 155.589844 280.398438 156.746094 280.738281 C 159.042969 281.460938 161.378906 282.070312 163.714844 282.640625 C 164.300781 282.773438 164.886719 282.902344 165.472656 283.035156 L 166.351562 283.230469 L 167.230469 283.40625 C 167.820312 283.523438 168.40625 283.640625 168.992188 283.753906 C 169.582031 283.855469 170.167969 283.957031 170.753906 284.058594 L 171.632812 284.210938 L 172.515625 284.34375 C 173.101562 284.429688 173.6875 284.515625 174.273438 284.601562 C 174.859375 284.679688 175.445312 284.746094 176.027344 284.816406 C 176.609375 284.886719 177.191406 284.960938 177.777344 285.015625 C 182.433594 285.484375 187.019531 285.664062 191.433594 285.566406 C 195.84375 285.460938 200.089844 285.097656 204.078125 284.535156 C 205.230469 284.386719 206.367188 284.1875 207.496094 284.003906 C 208.0625 283.917969 208.617188 283.796875 209.175781 283.695312 C 209.734375 283.589844 210.289062 283.484375 210.839844 283.375 C 213.039062 282.902344 215.195312 282.40625 217.292969 281.824219 C 221.492188 280.683594 225.484375 279.339844 229.246094 277.808594 C 236.769531 274.761719 243.394531 271.089844 249.148438 267.164062 C 254.90625 263.234375 259.796875 259.054688 263.957031 254.914062 C 266.039062 252.84375 267.921875 250.761719 269.652344 248.726562 C 271.386719 246.695312 272.9375 244.679688 274.351562 242.722656 C 279.492188 235.644531 284.003906 227.5 287.324219 219.019531 C 288.140625 216.894531 288.917969 214.761719 289.585938 212.609375 C 289.9375 211.542969 290.238281 210.460938 290.554688 209.390625 C 290.710938 208.859375 290.84375 208.316406 290.988281 207.78125 C 291.125 207.242188 291.28125 206.710938 291.402344 206.175781 C 292.449219 201.886719 293.210938 197.644531 293.675781 193.550781 C 293.726562 193.027344 293.785156 192.492188 293.839844 191.953125 C 293.867188 191.683594 293.898438 191.410156 293.925781 191.140625 C 293.945312 190.867188 293.96875 190.59375 293.992188 190.316406 C 294.035156 189.769531 294.078125 189.21875 294.121094 188.667969 C 294.152344 188.117188 294.183594 187.570312 294.210938 187.023438 C 294.28125 185.9375 294.292969 184.867188 294.320312 183.84375 C 294.34375 182.820312 294.324219 181.84375 294.316406 180.945312 C 294.296875 180.042969 294.25 179.21875 294.214844 178.496094 C 294.179688 177.777344 294.105469 177.15625 294.050781 176.667969 C 293.929688 175.691406 293.804688 175.238281 293.667969 175.523438 C 293.074219 176.773438 292.503906 179.695312 291.664062 183.046875 C 291.453125 183.886719 291.234375 184.75 291.011719 185.625 C 290.765625 186.496094 290.519531 187.375 290.277344 188.253906 C 290.003906 189.125 289.75 189.988281 289.476562 190.824219 C 289.1875 191.660156 288.921875 192.46875 288.632812 193.234375 C 288.445312 193.730469 288.226562 194.378906 288 195.066406 C 287.765625 195.753906 287.503906 196.476562 287.273438 197.125 C 287.136719 197.5 286.996094 197.847656 286.859375 198.179688 C 286.722656 198.503906 286.589844 198.820312 286.457031 199.132812 C 286.203125 199.75 285.925781 200.347656 285.628906 201.011719 C 285.332031 201.703125 285.015625 202.445312 284.636719 203.316406 C 284.273438 204.21875 283.808594 205.269531 283.273438 206.574219 C 282.609375 208.128906 281.378906 211.253906 279.722656 214.683594 C 278.097656 218.125 275.996094 221.84375 274.101562 224.792969 C 274.070312 225.082031 274.082031 225.296875 274.0625 225.570312 C 274.039062 225.835938 273.980469 226.15625 273.808594 226.660156 C 273.722656 226.902344 273.4375 227.496094 273.066406 228.160156 C 272.691406 228.824219 272.269531 229.589844 271.921875 230.191406 C 270.628906 232.050781 269.265625 233.835938 267.855469 235.601562 C 266.429688 237.355469 264.941406 239.074219 263.371094 240.777344 C 261.9375 242.320312 259.953125 244.320312 258.164062 245.976562 C 257.710938 246.390625 257.28125 246.785156 256.875 247.152344 C 256.472656 247.523438 256.085938 247.847656 255.75 248.144531 C 255.414062 248.441406 255.117188 248.703125 254.878906 248.910156 C 254.640625 249.117188 254.453125 249.277344 254.335938 249.378906 C 252.828125 250.757812 250.9375 252.296875 249.578125 253.417969 C 248.195312 254.503906 247.363281 255.195312 247.9375 254.832031 C 248.6875 254.359375 249.34375 253.964844 249.894531 253.628906 C 250.445312 253.289062 250.898438 253.015625 251.265625 252.808594 C 252.007812 252.398438 252.386719 252.226562 252.484375 252.300781 C 252.679688 252.445312 251.710938 253.523438 249.917969 255.125 C 248.128906 256.726562 245.488281 258.824219 242.335938 260.957031 C 239.191406 263.085938 235.542969 265.269531 231.851562 267.125 C 225.246094 269.835938 218.9375 271.5625 213.292969 272.621094 C 210.46875 273.160156 207.804688 273.511719 205.335938 273.753906 C 204.71875 273.808594 204.117188 273.882812 203.523438 273.917969 C 202.933594 273.957031 202.351562 273.996094 201.785156 274.035156 C 201.21875 274.078125 200.664062 274.085938 200.125 274.109375 C 199.582031 274.128906 199.058594 274.160156 198.542969 274.164062 C 194.433594 274.238281 191.210938 274.019531 189 273.769531 C 187.894531 273.640625 187.042969 273.492188 186.457031 273.378906 C 185.871094 273.253906 185.550781 273.128906 185.511719 273.035156 C 185.453125 272.925781 189.265625 272.9375 191.277344 272.796875 C 194.769531 272.882812 198.242188 272.792969 201.78125 272.5 C 203.417969 272.363281 205.214844 272.171875 206.933594 271.929688 C 208.230469 271.65625 210.777344 271.0625 210.589844 271.015625 C 210.183594 270.914062 209.46875 270.878906 208.265625 270.929688 C 207.660156 270.941406 206.933594 270.976562 206.058594 271.039062 C 205.617188 271.0625 205.144531 271.089844 204.632812 271.117188 C 204.121094 271.144531 203.570312 271.191406 202.972656 271.210938 C 202.375 271.242188 201.734375 271.273438 201.054688 271.308594 C 200.367188 271.335938 199.636719 271.363281 198.859375 271.386719 C 198.082031 271.40625 197.253906 271.421875 196.378906 271.4375 C 195.496094 271.4375 194.566406 271.4375 193.585938 271.4375 C 189.652344 271.371094 184.847656 271.136719 179.0625 270.292969 C 175.542969 270.210938 172.292969 269.953125 169.046875 269.542969 C 163.875 268.023438 158.476562 265.882812 154.195312 263.734375 C 150.117188 261.699219 146.28125 259.339844 144.300781 257.832031 C 143.578125 257.273438 146.511719 258.777344 150.148438 260.488281 C 155.121094 262.804688 160.1875 264.671875 165.152344 266.082031 C 167.636719 266.785156 170.09375 267.375 172.5 267.875 C 174.90625 268.367188 177.261719 268.742188 179.542969 269.054688 C 180.113281 269.125 180.679688 269.195312 181.238281 269.265625 C 181.800781 269.339844 182.355469 269.378906 182.90625 269.4375 C 184.003906 269.5625 185.085938 269.628906 186.140625 269.714844 C 186.667969 269.757812 187.191406 269.777344 187.707031 269.808594 C 188.222656 269.832031 188.730469 269.871094 189.234375 269.882812 C 190.238281 269.910156 191.214844 269.960938 192.164062 269.957031 C 195.960938 270.011719 199.289062 269.867188 202.023438 269.695312 C 202.394531 269.667969 202.777344 269.644531 203.167969 269.617188 C 203.5625 269.59375 203.964844 269.546875 204.386719 269.507812 C 204.804688 269.46875 205.238281 269.425781 205.6875 269.382812 C 206.132812 269.328125 206.597656 269.273438 207.078125 269.214844 C 209.003906 268.984375 211.199219 268.644531 213.769531 268.136719 C 214.308594 267.917969 214.804688 267.726562 215.273438 267.53125 C 215.742188 267.328125 216.1875 267.132812 216.648438 266.9375 C 216.878906 266.835938 217.109375 266.742188 217.34375 266.632812 C 217.582031 266.527344 217.820312 266.417969 218.070312 266.300781 C 218.570312 266.066406 219.113281 265.832031 219.710938 265.535156 C 220.347656 265.363281 220.929688 265.207031 221.46875 265.066406 C 222.003906 264.914062 222.488281 264.769531 222.941406 264.636719 C 223.84375 264.382812 224.589844 264.132812 225.273438 263.921875 C 225.957031 263.707031 226.558594 263.492188 227.167969 263.277344 C 227.472656 263.167969 227.777344 263.054688 228.09375 262.941406 C 228.410156 262.828125 228.734375 262.695312 229.078125 262.5625 C 229.484375 262.398438 229.910156 262.226562 230.351562 262.050781 C 230.789062 261.863281 231.234375 261.671875 231.695312 261.472656 C 232.621094 261.085938 233.5625 260.625 234.535156 260.179688 C 236.457031 259.242188 238.4375 258.226562 240.257812 257.183594 C 240.296875 257.117188 240.710938 256.84375 241.375 256.394531 C 241.714844 256.175781 242.113281 255.914062 242.566406 255.621094 C 243.015625 255.320312 243.515625 254.984375 244.054688 254.621094 C 246.207031 253.171875 248.921875 251.203125 251.355469 249.207031 C 253.792969 247.222656 255.941406 245.21875 257.191406 243.957031 C 258.429688 242.6875 258.808594 242.207031 257.632812 243.164062 C 256.820312 243.824219 256.523438 243.976562 256.242188 244.101562 C 255.964844 244.226562 255.714844 244.332031 254.984375 244.886719 C 254.625 245.167969 254.128906 245.539062 253.453125 246.085938 C 253.285156 246.222656 253.105469 246.367188 252.910156 246.527344 C 252.714844 246.679688 252.503906 246.84375 252.28125 247.019531 C 251.832031 247.367188 251.339844 247.78125 250.761719 248.214844 C 250.472656 248.4375 250.167969 248.671875 249.847656 248.917969 C 249.6875 249.039062 249.523438 249.167969 249.351562 249.296875 C 249.179688 249.425781 249.003906 249.554688 248.824219 249.691406 C 248.460938 249.957031 248.078125 250.238281 247.675781 250.535156 C 247.277344 250.832031 246.84375 251.128906 246.394531 251.449219 C 244.59375 252.710938 242.421875 254.175781 239.734375 255.769531 C 237.742188 256.953125 235.773438 257.980469 233.914062 258.882812 C 233.445312 259.097656 232.988281 259.3125 232.535156 259.519531 C 232.308594 259.621094 232.085938 259.722656 231.867188 259.824219 C 231.644531 259.917969 231.421875 260.011719 231.203125 260.105469 C 230.765625 260.289062 230.339844 260.46875 229.925781 260.644531 C 229.507812 260.816406 229.097656 260.96875 228.699219 261.125 C 228.304688 261.273438 227.921875 261.425781 227.546875 261.5625 C 227.171875 261.691406 226.808594 261.820312 226.457031 261.941406 C 226.109375 262.058594 225.773438 262.171875 225.453125 262.28125 C 225.128906 262.382812 224.820312 262.476562 224.527344 262.570312 C 223.359375 262.9375 222.425781 263.167969 221.800781 263.3125 C 219.59375 263.800781 217.058594 264.339844 214.0625 264.847656 C 211.066406 265.351562 207.609375 265.824219 203.578125 266.136719 C 203.074219 266.179688 202.5625 266.210938 202.039062 266.238281 C 201.515625 266.265625 200.984375 266.304688 200.445312 266.328125 C 199.359375 266.363281 198.242188 266.421875 197.085938 266.421875 C 195.929688 266.453125 194.730469 266.425781 193.496094 266.414062 C 192.875 266.394531 192.246094 266.375 191.609375 266.351562 C 190.972656 266.335938 190.324219 266.285156 189.664062 266.253906 C 184.402344 265.9375 178.492188 265.191406 171.988281 263.566406 C 170.808594 263.269531 170.65625 263.160156 171.195312 263.195312 C 171.734375 263.226562 172.960938 263.4375 174.558594 263.6875 C 174.949219 263.753906 175.445312 263.839844 176.023438 263.925781 C 176.601562 264.007812 177.257812 264.125 177.964844 264.214844 C 178.675781 264.300781 179.4375 264.417969 180.222656 264.503906 C 180.617188 264.546875 181.015625 264.589844 181.417969 264.632812 C 181.621094 264.65625 181.820312 264.679688 182.023438 264.699219 L 182.632812 264.753906 C 185.867188 265.054688 189.066406 265.160156 190.425781 265.1875 C 191.375 265.234375 192.320312 265.222656 193.261719 265.238281 C 193.734375 265.246094 194.203125 265.230469 194.667969 265.226562 C 195.136719 265.214844 195.605469 265.21875 196.074219 265.203125 C 197.9375 265.136719 199.785156 265.046875 201.613281 264.871094 C 205.273438 264.546875 208.863281 264.015625 212.382812 263.261719 C 215.898438 262.511719 219.355469 261.578125 222.738281 260.421875 C 226.121094 259.265625 229.441406 257.914062 232.691406 256.363281 C 240.179688 252.765625 247.03125 248.246094 253.261719 242.835938 C 254.152344 241.65625 257.003906 238.339844 255.195312 239.742188 C 254.140625 240.546875 252.140625 242.265625 249.628906 244.183594 C 247.125 246.101562 244.117188 248.21875 241.203125 249.96875 C 240.621094 250.316406 238.347656 251.808594 235.992188 253.132812 C 233.648438 254.476562 231.238281 255.667969 230.6875 255.957031 C 227.785156 257.492188 225.246094 258.605469 223.003906 259.480469 C 220.753906 260.351562 218.800781 260.996094 217.011719 261.496094 C 216.5625 261.617188 216.128906 261.746094 215.699219 261.855469 C 215.269531 261.960938 214.847656 262.0625 214.433594 262.164062 C 213.605469 262.378906 212.796875 262.527344 211.996094 262.699219 C 211.597656 262.785156 211.199219 262.855469 210.796875 262.925781 C 210.398438 262.996094 209.996094 263.066406 209.59375 263.136719 C 208.785156 263.269531 207.960938 263.386719 207.109375 263.515625 C 204.703125 263.839844 202.230469 264.085938 199.695312 264.230469 C 199.0625 264.257812 198.429688 264.304688 197.789062 264.320312 C 197.148438 264.339844 196.503906 264.355469 195.855469 264.375 C 195.210938 264.375 194.558594 264.375 193.90625 264.378906 C 193.253906 264.382812 192.597656 264.351562 191.941406 264.34375 C 186.675781 264.195312 181.257812 263.613281 175.847656 262.476562 C 175.03125 262.304688 174.210938 262.117188 173.375 261.9375 C 172.957031 261.835938 172.539062 261.734375 172.113281 261.632812 C 171.6875 261.53125 171.257812 261.433594 170.824219 261.316406 C 169.957031 261.089844 169.0625 260.867188 168.140625 260.597656 C 167.683594 260.464844 167.207031 260.347656 166.734375 260.199219 C 166.257812 260.054688 165.773438 259.90625 165.277344 259.757812 C 163.304688 259.132812 161.175781 258.410156 158.84375 257.507812 C 156.515625 256.59375 153.988281 255.496094 151.230469 254.117188 C 145.34375 251.160156 140.171875 247.777344 135.539062 244.121094 C 130.914062 240.457031 126.828125 236.511719 123.171875 232.273438 C 119.515625 228.03125 116.285156 223.5 113.453125 218.578125 C 110.625 213.652344 108.199219 208.335938 106.277344 202.496094 C 106.277344 202.496094 106.59375 203.476562 106.59375 203.480469 " fill-opacity="1" fill-rule="nonzero"/></g><path fill="#4db5ff" d="M 270.246094 226.230469 C 271.953125 223.941406 273.59375 221.5 275.089844 219.042969 C 276.585938 216.589844 277.933594 214.121094 279.109375 211.808594 C 279.304688 211.40625 279.160156 211.882812 278.90625 212.597656 C 278.636719 213.308594 278.285156 214.246094 278.078125 214.789062 C 277.761719 215.425781 277.417969 216.148438 277.050781 216.882812 C 276.667969 217.605469 276.296875 218.355469 275.917969 219.042969 C 275.539062 219.730469 275.1875 220.375 274.882812 220.902344 C 274.574219 221.425781 274.320312 221.839844 274.164062 222.085938 C 272.503906 224.636719 270.828125 226.929688 269.105469 229.089844 C 267.378906 231.253906 265.601562 233.28125 263.707031 235.277344 C 266.0625 232.390625 268.242188 229.367188 270.246094 226.230469 " fill-opacity="1" fill-rule="nonzero"/><path fill="#4db5ff" d="M 113.4375 136.75 C 113.269531 137.285156 112.917969 138.199219 113.007812 138.246094 C 113.082031 138.285156 113.59375 137.460938 113.917969 137.023438 C 113.125 138.511719 112.347656 140.1875 111.628906 141.777344 C 111.285156 142.578125 110.941406 143.351562 110.644531 144.082031 C 110.355469 144.8125 110.066406 145.480469 109.839844 146.074219 C 109.425781 147.125 109.101562 147.945312 108.851562 148.578125 C 108.605469 149.203125 108.40625 149.621094 108.285156 149.894531 C 108.179688 150.121094 108.183594 149.964844 108.21875 149.699219 C 108.257812 149.433594 108.339844 149.0625 108.363281 148.863281 C 108.546875 148.324219 108.714844 147.78125 108.914062 147.25 L 109.496094 145.648438 C 109.910156 144.589844 110.316406 143.53125 110.769531 142.488281 C 111.660156 140.398438 112.609375 138.335938 113.667969 136.324219 L 113.4375 136.75 " fill-opacity="1" fill-rule="nonzero"/><path fill="#4db5ff" d="M 123.574219 231.664062 C 122.976562 231.089844 122.601562 230.6875 122.207031 230.296875 C 121.941406 229.929688 121.679688 229.546875 121.421875 229.164062 C 121.164062 228.78125 120.90625 228.398438 120.652344 228.023438 C 120.171875 227.265625 119.707031 226.5625 119.367188 225.96875 C 119.339844 225.925781 119.421875 226.03125 119.574219 226.238281 C 119.726562 226.4375 119.949219 226.734375 120.207031 227.066406 C 120.464844 227.402344 120.738281 227.785156 121.023438 228.136719 C 121.308594 228.488281 121.578125 228.828125 121.796875 229.101562 C 122.105469 229.585938 122.4375 230.050781 122.742188 230.488281 C 123.050781 230.925781 123.324219 231.335938 123.574219 231.664062 " fill-opacity="1" fill-rule="nonzero"/><path fill="#4db5ff" d="M 113.667969 136.324219 C 113.417969 136.726562 113.0625 137.335938 112.773438 137.816406 C 112.5 138.304688 112.285156 138.65625 112.292969 138.535156 C 112.304688 138.265625 113.175781 136.238281 113.734375 135.003906 C 114 134.679688 114.539062 133.84375 114.460938 134.175781 C 114.375 134.539062 113.691406 135.980469 113.375 136.859375 C 113.4375 136.75 113.667969 136.324219 113.667969 136.324219 " fill-opacity="1" fill-rule="nonzero"/><path fill="#4db5ff" d="M 106.277344 202.496094 C 106.277344 202.496094 106.59375 203.476562 106.59375 203.480469 C 106.480469 203.058594 106.328125 202.484375 106.203125 202.007812 C 106.082031 201.527344 106 201.136719 106.015625 201.089844 C 106.066406 200.945312 106.378906 201.75 106.605469 202.140625 C 106.753906 202.601562 106.933594 203.164062 107.121094 203.746094 C 107.320312 204.324219 107.53125 204.925781 107.71875 205.464844 C 107.898438 206.011719 108.09375 206.484375 108.21875 206.835938 C 108.285156 207.007812 108.335938 207.148438 108.371094 207.246094 C 108.40625 207.34375 108.425781 207.398438 108.425781 207.398438 C 108.390625 207.546875 108.277344 207.507812 107.851562 206.621094 C 107.785156 206.480469 107.679688 206.246094 107.558594 205.945312 C 107.441406 205.640625 107.300781 205.28125 107.148438 204.890625 C 106.839844 204.113281 106.535156 203.214844 106.277344 202.496094 " fill-opacity="1" fill-rule="nonzero"/><path fill="#4db5ff" d="M 98.011719 189.820312 C 97.839844 185.855469 97.851562 182.238281 98.089844 181.285156 C 98.113281 181.183594 98.15625 181.433594 98.21875 181.90625 C 98.246094 182.144531 98.28125 182.433594 98.324219 182.765625 C 98.367188 183.09375 98.414062 183.464844 98.46875 183.855469 C 98.519531 184.25 98.566406 184.667969 98.625 185.089844 C 98.691406 185.515625 98.757812 185.945312 98.820312 186.371094 C 98.9375 187.21875 99.09375 188.027344 99.214844 188.679688 C 99.34375 190.167969 99.660156 192.308594 99.933594 194.050781 C 100.082031 194.917969 100.222656 195.6875 100.304688 196.226562 C 100.390625 196.769531 100.441406 197.078125 100.394531 197.03125 C 100.195312 196.832031 99.847656 195.878906 99.40625 194.554688 C 99.1875 193.890625 98.96875 193.128906 98.722656 192.328125 C 98.496094 191.523438 98.253906 190.675781 98.011719 189.820312 " fill-opacity="1" fill-rule="nonzero"/><path fill="#4db5ff" d="M 97.425781 146.199219 C 97.191406 146.875 96.960938 147.523438 96.753906 148.125 C 96.539062 148.726562 96.378906 149.289062 96.214844 149.777344 C 96.058594 150.265625 95.925781 150.679688 95.820312 151.003906 C 95.722656 151.328125 95.644531 151.554688 95.597656 151.660156 C 95.539062 151.804688 95.632812 151.257812 95.796875 150.523438 C 95.96875 149.792969 96.179688 148.878906 96.324219 148.261719 C 96.527344 147.652344 96.796875 146.839844 97.027344 146.152344 C 97.273438 145.46875 97.480469 144.917969 97.535156 144.828125 C 97.714844 144.542969 97.503906 145.46875 97.425781 146.199219 " fill-opacity="1" fill-rule="nonzero"/><path fill="#4db5ff" d="M 110.460938 125.042969 C 110.511719 125.082031 110.628906 125.015625 110.597656 125.179688 C 110.542969 125.476562 110.402344 125.914062 110.300781 126.289062 C 109.972656 126.601562 109.480469 127.214844 109.40625 127.113281 C 109.386719 127.085938 109.550781 126.746094 109.777344 126.308594 C 110.003906 125.871094 110.300781 125.347656 110.515625 124.9375 C 110.5625 124.859375 110.460938 125.042969 110.460938 125.042969 " fill-opacity="1" fill-rule="nonzero"/><path fill="#4db5ff" d="M 158.398438 270.589844 C 161.484375 271.230469 164.585938 271.71875 167.683594 272.058594 C 164.585938 271.71875 161.484375 271.230469 158.398438 270.589844 " fill-opacity="1" fill-rule="nonzero"/><path fill="#4db5ff" d="M 149.820312 267.160156 C 152.878906 268.539062 156.011719 269.769531 159.195312 270.835938 C 158.636719 270.710938 158.183594 270.605469 157.5 270.429688 C 156.496094 270.179688 155.347656 269.816406 154.257812 269.496094 C 153.75 269.246094 153.222656 268.984375 152.707031 268.730469 C 152.453125 268.601562 152.199219 268.476562 151.953125 268.351562 C 151.710938 268.222656 151.472656 268.097656 151.25 267.976562 C 150.640625 267.648438 150.285156 267.429688 149.820312 267.160156 " fill-opacity="1" fill-rule="nonzero"/><g fill="#4db5ff" fill-opacity="1"><g transform="translate(116.831311, 211.403748)"><g><path d="M 54.21875 -84.484375 L 54.21875 -26.5 C 54.21875 -17.351562 51.59375 -10.398438 46.34375 -5.640625 C 41.09375 -0.890625 34.613281 1.484375 26.90625 1.484375 C 19.195312 1.484375 13.1875 0.0234375 8.875 -2.890625 C 4.570312 -5.804688 2.421875 -9.171875 2.421875 -12.984375 C 2.421875 -16.796875 3.539062 -19.734375 5.78125 -21.796875 C 10.71875 -17.492188 16.054688 -15.34375 21.796875 -15.34375 C 25.109375 -15.34375 27.816406 -16.210938 29.921875 -17.953125 C 32.035156 -19.703125 33.09375 -22.238281 33.09375 -25.5625 L 33.09375 -85.296875 C 33.09375 -89.867188 31.566406 -92.960938 28.515625 -94.578125 C 31.929688 -98.429688 36.054688 -100.359375 40.890625 -100.359375 C 49.773438 -100.359375 54.21875 -95.066406 54.21875 -84.484375 Z M 54.21875 -84.484375 "/></g></g></g><g fill="#4db5ff" fill-opacity="1"><g transform="translate(183.926637, 211.403748)"><g/></g></g><g fill="#4db5ff" fill-opacity="1"><g transform="translate(165.904489, 240.784099)"><g><path d="M 23.65625 -99.484375 L 70.421875 -99.484375 C 77.273438 -99.484375 82.03125 -98.671875 84.6875 -97.046875 C 87.34375 -95.429688 88.671875 -92.976562 88.671875 -89.6875 C 88.671875 -86.394531 87.226562 -83.535156 84.34375 -81.109375 C 80.019531 -82.816406 74.34375 -83.671875 67.3125 -83.671875 L 37.171875 -83.671875 L 37.171875 -59.75 L 55.828125 -59.75 C 63.035156 -59.75 68.148438 -59.09375 71.171875 -57.78125 C 74.191406 -56.476562 75.703125 -54.316406 75.703125 -51.296875 C 75.703125 -48.273438 74.257812 -45.773438 71.375 -43.796875 C 68.125 -44.691406 62.445312 -45.140625 54.34375 -45.140625 L 37.171875 -45.140625 L 37.171875 -13.921875 C 37.171875 -9.054688 38.613281 -5.859375 41.5 -4.328125 C 38.25 -0.453125 34.148438 1.484375 29.203125 1.484375 C 20.367188 1.484375 15.953125 -3.875 15.953125 -14.59375 L 15.953125 -84.21875 C 15.953125 -88.8125 14.421875 -91.914062 11.359375 -93.53125 C 14.691406 -97.5 18.789062 -99.484375 23.65625 -99.484375 Z M 23.65625 -99.484375 "/></g></g></g></svg>